<?xml version="1.0" encoding="iso-8859-1"?>
<!-- Generator: Adobe Illustrator 19.0.0, SVG Export Plug-In . SVG Version: 6.00 Build 0)  -->
<svg version="1.1" id="Capa_1" xmlns="http://www.w3.org/2000/svg" xmlns:xlink="http://www.w3.org/1999/xlink" x="0px" y="0px"
	 viewBox="0 0 474.136 474.136" style="enable-background:new 0 0 474.136 474.136;" xml:space="preserve">
<linearGradient id="SVGID_1_" gradientUnits="userSpaceOnUse" x1="-37.807" y1="550.391" x2="-37.807" y2="614.267" gradientTransform="matrix(8 0 0 -8 503.524 4888.2241)">
	<stop  offset="0" style="stop-color:#006DF0"/>
	<stop  offset="1" style="stop-color:#00E7F0"/>
</linearGradient>
<path style="fill:url(#SVGID_1_);" d="M201.068,166.712l-5.712,5.824c-4.688,4.8-114.288,117.208-114.288,181.6
	c0,66.274,53.726,120,120,120s120-53.726,120-120c0-64.392-109.6-176.8-114.288-181.6L201.068,166.712z M201.068,458.136
	c-57.41-0.066-103.934-46.59-104-104c0-50.136,81.464-140.392,104-164.408c22.536,24,104,114.24,104,164.408
	C305.002,411.546,258.478,458.07,201.068,458.136z"/>
<g>
	
		<linearGradient id="SVGID_2_" gradientUnits="userSpaceOnUse" x1="-43.307" y1="550.391" x2="-43.307" y2="614.267" gradientTransform="matrix(8 0 0 -8 503.524 4888.2241)">
		<stop  offset="0" style="stop-color:#006DF0"/>
		<stop  offset="1" style="stop-color:#00E7F0"/>
	</linearGradient>
	<path style="fill:url(#SVGID_2_);" d="M137.068,354.136h-16c0.044,39.746,32.254,71.956,72,72v-16
		C162.157,410.096,137.108,385.047,137.068,354.136z"/>
	
		<linearGradient id="SVGID_3_" gradientUnits="userSpaceOnUse" x1="-22.807" y1="550.391" x2="-22.807" y2="614.267" gradientTransform="matrix(8 0 0 -8 503.524 4888.2241)">
		<stop  offset="0" style="stop-color:#006DF0"/>
		<stop  offset="1" style="stop-color:#00E7F0"/>
	</linearGradient>
	<path style="fill:url(#SVGID_3_);" d="M327.236,28.6l-6.168-7.344l-6.144,7.352c-10.976,13.168-65.856,80.352-65.856,109.528
		c0,39.764,32.235,72,72,72s72-32.236,72-72C393.068,115.448,357.596,64.952,327.236,28.6z M321.068,194.136
		c-30.911-0.04-55.96-25.089-56-56c0-11.712,19.2-46.568,56-91.832c36.416,44.8,56,80.368,56,91.832
		C377.028,169.048,351.979,194.096,321.068,194.136z"/>
	
		<linearGradient id="SVGID_4_" gradientUnits="userSpaceOnUse" x1="-40.808" y1="550.391" x2="-40.808" y2="614.267" gradientTransform="matrix(8 0 0 -8 503.524 4888.2241)">
		<stop  offset="0" style="stop-color:#006DF0"/>
		<stop  offset="1" style="stop-color:#00E7F0"/>
	</linearGradient>
	<path style="fill:url(#SVGID_4_);" d="M177.068,106.136c21.555,0.094,39.278-16.969,40-38.512v-1.168l-0.288-1.128
		c-2.184-8.472-13.312-29.24-33.232-56.504L177.068,0l-6.464,8.8c-17.928,24.536-31.016,46.68-33.312,56.536l-0.24,1.024v1.048
		C137.643,89.05,155.419,106.253,177.068,106.136z M177.068,27.296c9.501,12.711,17.52,26.464,23.904,40.992
		c-1.07,12.393-11.465,21.894-23.904,21.848c-12.486-0.094-22.851-9.672-23.928-22.112C159.52,53.571,167.549,39.904,177.068,27.296
		z"/>
</g>
<g>
</g>
<g>
</g>
<g>
</g>
<g>
</g>
<g>
</g>
<g>
</g>
<g>
</g>
<g>
</g>
<g>
</g>
<g>
</g>
<g>
</g>
<g>
</g>
<g>
</g>
<g>
</g>
<g>
</g>
</svg>
