<?xml version="1.0" encoding="iso-8859-1"?>
<!-- Generator: Adobe Illustrator 19.0.0, SVG Export Plug-In . SVG Version: 6.00 Build 0)  -->
<svg version="1.1" id="Capa_1" xmlns="http://www.w3.org/2000/svg" xmlns:xlink="http://www.w3.org/1999/xlink" x="0px" y="0px"
	 viewBox="0 0 480 480" style="enable-background:new 0 0 480 480;" xml:space="preserve">
<linearGradient id="SVGID_1_" gradientUnits="userSpaceOnUse" x1="-26.875" y1="530.7881" x2="-26.875" y2="569.5911" gradientTransform="matrix(8 0 0 -8 455 4652.7847)">
	<stop  offset="0" style="stop-color:#006DF0"/>
	<stop  offset="1" style="stop-color:#00E7F0"/>
</linearGradient>
<path style="fill:url(#SVGID_1_);" d="M480,199.976h-44.6c3.047-9.632,4.598-19.674,4.6-29.776
	c0.047-54.168-43.826-98.118-97.994-98.166c-26.05-0.023-51.038,10.318-69.454,28.742L240,133.336l-32.544-32.608
	c-38.314-38.291-100.415-38.273-138.706,0.041c-25.948,25.964-35.227,64.244-24.046,99.207H0v16h51.272
	c4.609,8.764,10.519,16.781,17.528,23.776l165.6,165.88c3.122,3.126,8.188,3.129,11.314,0.006c0.002-0.002,0.004-0.004,0.006-0.006
	l165.6-165.88c6.971-7.005,12.848-15.021,17.432-23.776H480V199.976z M80.08,112.048c31.944-32.052,83.822-32.141,115.875-0.197
	c0.066,0.066,0.132,0.131,0.197,0.197l38.2,38.264c3.175,3.006,8.145,3.006,11.32,0l38.192-38.256
	c32.066-32.055,84.047-32.045,116.101,0.021c15.41,15.415,24.057,36.326,24.035,58.123c-0.015,10.186-1.913,20.281-5.6,29.776
	h-83.304c-2.881,0-5.54,1.549-6.96,4.056l-11.152,19.704l-11.152-19.704c-2.177-3.845-7.058-5.197-10.903-3.02
	c-0.82,0.464-1.552,1.07-2.161,1.788L247.2,256.448l-31.416-83.296c-1.088-2.913-3.765-4.931-6.864-5.176
	c-3.095-0.277-6.065,1.289-7.584,4l-31.36,55.416l-28.8-25.472c-1.463-1.29-3.346-2.001-5.296-2H61.6
	C49.883,169.549,57.122,135.127,80.08,112.048L80.08,112.048z M399.944,228.448L240,388.648l-159.92-160.2
	c-3.798-3.815-7.214-7.993-10.2-12.472h62.92l33.952,30c3.312,2.924,8.368,2.609,11.292-0.703c0.367-0.416,0.691-0.87,0.964-1.353
	l27.816-49.136l30.192,80c1.553,4.136,6.165,6.231,10.301,4.678c1.28-0.481,2.416-1.281,3.299-2.326l46.928-55.264l12.464,22.032
	c2.522,3.846,7.685,4.919,11.531,2.397c0.955-0.626,1.771-1.442,2.397-2.397l15.824-27.928h70.4
	C407.165,220.453,403.743,224.63,399.944,228.448z"/>
<g>
</g>
<g>
</g>
<g>
</g>
<g>
</g>
<g>
</g>
<g>
</g>
<g>
</g>
<g>
</g>
<g>
</g>
<g>
</g>
<g>
</g>
<g>
</g>
<g>
</g>
<g>
</g>
<g>
</g>
</svg>
