<?xml version="1.0" encoding="iso-8859-1"?>
<!-- Generator: Adobe Illustrator 19.0.0, SVG Export Plug-In . SVG Version: 6.00 Build 0)  -->
<svg version="1.1" id="Capa_1" xmlns="http://www.w3.org/2000/svg" xmlns:xlink="http://www.w3.org/1999/xlink" x="0px" y="0px"
	 viewBox="0 0 479.973 479.973" style="enable-background:new 0 0 479.973 479.973;" xml:space="preserve">
<g>
	
		<linearGradient id="SVGID_1_" gradientUnits="userSpaceOnUse" x1="-26.8886" y1="556.615" x2="-26.8886" y2="620.036" gradientTransform="matrix(8 0 0 -8 455.0953 4941)">
		<stop  offset="0" style="stop-color:#006DF0"/>
		<stop  offset="1" style="stop-color:#00E7F0"/>
	</linearGradient>
	<path style="fill:url(#SVGID_1_);" d="M279.986,213.952V27.36C279.969,12.257,267.73,0.018,252.626,0h-25.28
		c-15.103,0.018-27.342,12.257-27.36,27.36v186.592c-71.789,22.091-112.076,98.196-89.985,169.985s98.196,112.076,169.985,89.985
		s112.076-98.196,89.985-169.985C356.725,260.893,323.03,227.198,279.986,213.952z M239.986,464
		c-66.274,0.143-120.116-53.466-120.26-119.74c-0.119-54.916,37.056-102.906,90.26-116.516c3.531-0.912,5.999-4.097,6-7.744V27.36
		c0.009-6.27,5.09-11.351,11.36-11.36h25.28c6.27,0.009,11.351,5.09,11.36,11.36V220c0.001,3.647,2.469,6.832,6,7.744
		c64.207,16.425,102.941,81.79,86.516,145.996C342.892,426.944,294.903,464.119,239.986,464z"/>
	
		<linearGradient id="SVGID_2_" gradientUnits="userSpaceOnUse" x1="-26.8886" y1="556.615" x2="-26.8886" y2="620.036" gradientTransform="matrix(8 0 0 -8 455.0953 4941)">
		<stop  offset="0" style="stop-color:#006DF0"/>
		<stop  offset="1" style="stop-color:#00E7F0"/>
	</linearGradient>
	<path style="fill:url(#SVGID_2_);" d="M247.986,272.472V32c0-4.418-3.582-8-8-8s-8,3.582-8,8v240.472
		c-39.518,4.418-67.972,40.036-63.554,79.554c4.418,39.518,40.036,67.972,79.554,63.554c39.518-4.418,67.972-40.036,63.554-79.554
		C307.803,302.596,281.416,276.21,247.986,272.472z M239.986,400c-30.928,0-56-25.072-56-56s25.072-56,56-56s56,25.072,56,56l0,0
		C295.951,374.913,270.9,399.965,239.986,400z"/>
</g>
<g>
	
		<linearGradient id="SVGID_3_" gradientUnits="userSpaceOnUse" x1="-17.8886" y1="556.615" x2="-17.8886" y2="620.036" gradientTransform="matrix(8 0 0 -8 455.0953 4941)">
		<stop  offset="0" style="stop-color:#006DF0"/>
		<stop  offset="1" style="stop-color:#00E7F0"/>
	</linearGradient>
	<path style="fill:url(#SVGID_3_);" d="M295.986,40h32v16h-32V40z"/>
	
		<linearGradient id="SVGID_4_" gradientUnits="userSpaceOnUse" x1="-17.8886" y1="556.615" x2="-17.8886" y2="620.036" gradientTransform="matrix(8 0 0 -8 455.0953 4941)">
		<stop  offset="0" style="stop-color:#006DF0"/>
		<stop  offset="1" style="stop-color:#00E7F0"/>
	</linearGradient>
	<path style="fill:url(#SVGID_4_);" d="M295.986,72h32v16h-32V72z"/>
	
		<linearGradient id="SVGID_5_" gradientUnits="userSpaceOnUse" x1="-17.8886" y1="556.615" x2="-17.8886" y2="620.036" gradientTransform="matrix(8 0 0 -8 455.0953 4941)">
		<stop  offset="0" style="stop-color:#006DF0"/>
		<stop  offset="1" style="stop-color:#00E7F0"/>
	</linearGradient>
	<path style="fill:url(#SVGID_5_);" d="M295.986,104h32v16h-32V104z"/>
	
		<linearGradient id="SVGID_6_" gradientUnits="userSpaceOnUse" x1="-17.8886" y1="556.615" x2="-17.8886" y2="620.036" gradientTransform="matrix(8 0 0 -8 455.0953 4941)">
		<stop  offset="0" style="stop-color:#006DF0"/>
		<stop  offset="1" style="stop-color:#00E7F0"/>
	</linearGradient>
	<path style="fill:url(#SVGID_6_);" d="M295.986,136h32v16h-32V136z"/>
	
		<linearGradient id="SVGID_7_" gradientUnits="userSpaceOnUse" x1="-17.8886" y1="556.615" x2="-17.8886" y2="620.036" gradientTransform="matrix(8 0 0 -8 455.0953 4941)">
		<stop  offset="0" style="stop-color:#006DF0"/>
		<stop  offset="1" style="stop-color:#00E7F0"/>
	</linearGradient>
	<path style="fill:url(#SVGID_7_);" d="M295.986,168h32v16h-32V168z"/>
</g>
<g>
</g>
<g>
</g>
<g>
</g>
<g>
</g>
<g>
</g>
<g>
</g>
<g>
</g>
<g>
</g>
<g>
</g>
<g>
</g>
<g>
</g>
<g>
</g>
<g>
</g>
<g>
</g>
<g>
</g>
</svg>
